<mxfile host="app.diagrams.net" modified="2022-12-17T13:12:29.179Z" agent="5.0 (Windows NT 10.0; Win64; x64) AppleWebKit/537.36 (KHTML, like Gecko) Chrome/108.0.0.0 Safari/537.36 Edg/108.0.1462.54" etag="p2BS7ig7nbzkZNRZeooe" version="20.7.4" type="github">
  <diagram name="Page-1" id="e7e014a7-5840-1c2e-5031-d8a46d1fe8dd">
    <mxGraphModel dx="1313" dy="1552" grid="1" gridSize="10" guides="1" tooltips="1" connect="1" arrows="1" fold="1" page="1" pageScale="1" pageWidth="1169" pageHeight="826" background="none" math="0" shadow="0">
      <root>
        <mxCell id="0" />
        <mxCell id="1" parent="0" />
        <mxCell id="2" value="Thread 1" style="swimlane;whiteSpace=wrap" parent="1" vertex="1">
          <mxGeometry x="480" y="-100" width="280" height="570" as="geometry" />
        </mxCell>
        <mxCell id="5" value="" style="ellipse;shape=startState;fillColor=#000000;strokeColor=#ff0000;" parent="2" vertex="1">
          <mxGeometry x="100" y="40" width="30" height="30" as="geometry" />
        </mxCell>
        <mxCell id="6" value="" style="edgeStyle=elbowEdgeStyle;elbow=horizontal;verticalAlign=bottom;endArrow=open;endSize=8;strokeColor=#FF0000;endFill=1;rounded=0" parent="2" source="5" target="7" edge="1">
          <mxGeometry x="100" y="40" as="geometry">
            <mxPoint x="115" y="110" as="targetPoint" />
          </mxGeometry>
        </mxCell>
        <mxCell id="7" value="idle" style="" parent="2" vertex="1">
          <mxGeometry x="60" y="110" width="110" height="50" as="geometry" />
        </mxCell>
        <mxCell id="8" value="user action" style="" parent="2" vertex="1">
          <mxGeometry x="60" y="220" width="110" height="50" as="geometry" />
        </mxCell>
        <mxCell id="9" value="" style="endArrow=open;strokeColor=#FF0000;endFill=1;rounded=0" parent="2" source="7" target="8" edge="1">
          <mxGeometry relative="1" as="geometry" />
        </mxCell>
        <mxCell id="10" value="post command" style="" parent="2" vertex="1">
          <mxGeometry x="60" y="325" width="110" height="50" as="geometry" />
        </mxCell>
        <mxCell id="11" value="" style="endArrow=open;strokeColor=#FF0000;endFill=1;rounded=0" parent="2" source="8" target="10" edge="1">
          <mxGeometry relative="1" as="geometry" />
        </mxCell>
        <mxCell id="12" value="" style="edgeStyle=elbowEdgeStyle;elbow=horizontal;strokeColor=#FF0000;endArrow=open;endFill=1;rounded=0" parent="2" source="10" target="7" edge="1">
          <mxGeometry width="100" height="100" relative="1" as="geometry">
            <mxPoint x="160" y="290" as="sourcePoint" />
            <mxPoint x="260" y="190" as="targetPoint" />
            <Array as="points">
              <mxPoint x="30" y="250" />
            </Array>
          </mxGeometry>
        </mxCell>
        <mxCell id="3" value="Thread 2" style="swimlane;whiteSpace=wrap" parent="1" vertex="1">
          <mxGeometry x="760" y="-100" width="280" height="570" as="geometry" />
        </mxCell>
        <mxCell id="13" value="" style="ellipse;shape=startState;fillColor=#000000;strokeColor=#ff0000;" parent="3" vertex="1">
          <mxGeometry x="60" y="40" width="30" height="30" as="geometry" />
        </mxCell>
        <mxCell id="14" value="" style="edgeStyle=elbowEdgeStyle;elbow=horizontal;verticalAlign=bottom;endArrow=open;endSize=8;strokeColor=#FF0000;endFill=1;rounded=0" parent="3" source="13" target="15" edge="1">
          <mxGeometry x="40" y="20" as="geometry">
            <mxPoint x="55" y="90" as="targetPoint" />
          </mxGeometry>
        </mxCell>
        <mxCell id="15" value="idle" style="" parent="3" vertex="1">
          <mxGeometry x="20" y="110" width="110" height="50" as="geometry" />
        </mxCell>
        <mxCell id="16" value="check for &#xa;new commands" style="" parent="3" vertex="1">
          <mxGeometry x="20" y="220" width="110" height="50" as="geometry" />
        </mxCell>
        <mxCell id="17" value="" style="endArrow=open;strokeColor=#FF0000;endFill=1;rounded=0" parent="3" source="15" target="16" edge="1">
          <mxGeometry relative="1" as="geometry" />
        </mxCell>
        <mxCell id="18" value="command queue" style="" parent="3" vertex="1">
          <mxGeometry x="20" y="325" width="110" height="50" as="geometry" />
        </mxCell>
        <mxCell id="19" value="" style="endArrow=open;strokeColor=#FF0000;endFill=1;rounded=0" parent="3" source="16" target="18" edge="1">
          <mxGeometry relative="1" as="geometry" />
        </mxCell>
        <mxCell id="21" value="queue empty" style="rhombus;fillColor=#ffffc0;strokeColor=#ff0000;" parent="3" vertex="1">
          <mxGeometry x="150" y="225" width="80" height="40" as="geometry" />
        </mxCell>
        <mxCell id="22" value="yes" style="edgeStyle=elbowEdgeStyle;elbow=horizontal;align=left;verticalAlign=bottom;endArrow=open;endSize=8;strokeColor=#FF0000;exitX=0.5;exitY=0;endFill=1;rounded=0;entryX=0.75;entryY=0.5;entryPerimeter=0" parent="3" source="21" target="25" edge="1">
          <mxGeometry x="-1" relative="1" as="geometry">
            <mxPoint x="160" y="150" as="targetPoint" />
            <Array as="points">
              <mxPoint x="190" y="180" />
            </Array>
          </mxGeometry>
        </mxCell>
        <mxCell id="23" value="no" style="edgeStyle=elbowEdgeStyle;elbow=horizontal;align=left;verticalAlign=top;endArrow=open;endSize=8;strokeColor=#FF0000;endFill=1;rounded=0" parent="3" source="21" target="30" edge="1">
          <mxGeometry x="-1" relative="1" as="geometry">
            <mxPoint x="190" y="305" as="targetPoint" />
          </mxGeometry>
        </mxCell>
        <mxCell id="24" value="" style="endArrow=open;strokeColor=#FF0000;endFill=1;rounded=0" parent="3" source="16" target="21" edge="1">
          <mxGeometry relative="1" as="geometry" />
        </mxCell>
        <mxCell id="25" value="" style="shape=line;strokeWidth=6;strokeColor=#ff0000;rotation=90" parent="3" vertex="1">
          <mxGeometry x="130" y="127.5" width="50" height="15" as="geometry" />
        </mxCell>
        <mxCell id="26" value="" style="edgeStyle=elbowEdgeStyle;elbow=horizontal;verticalAlign=bottom;endArrow=open;endSize=8;strokeColor=#FF0000;endFill=1;rounded=0" parent="3" source="25" target="15" edge="1">
          <mxGeometry x="130" y="90" as="geometry">
            <mxPoint x="230" y="140" as="targetPoint" />
          </mxGeometry>
        </mxCell>
        <mxCell id="30" value="dispatch&#xa;command&#xa;worker thread" style="" parent="3" vertex="1">
          <mxGeometry x="140" y="325" width="110" height="50" as="geometry" />
        </mxCell>
        <mxCell id="31" value="critical&#xa;section" style="shape=note;whiteSpace=wrap;size=17" parent="3" vertex="1">
          <mxGeometry x="105" y="490" width="100" height="50" as="geometry" />
        </mxCell>
        <mxCell id="32" value="" style="endArrow=none;strokeColor=#FF0000;endFill=0;rounded=0;dashed=1" parent="3" source="18" target="31" edge="1">
          <mxGeometry relative="1" as="geometry" />
        </mxCell>
        <mxCell id="34" value="" style="whiteSpace=wrap;strokeColor=#FF0000;fillColor=#FF0000" parent="3" vertex="1">
          <mxGeometry x="245" y="395" width="5" height="45" as="geometry" />
        </mxCell>
        <mxCell id="41" value="" style="edgeStyle=elbowEdgeStyle;elbow=horizontal;entryX=0;entryY=0.5;strokeColor=#FF0000;endArrow=open;endFill=1;rounded=0" parent="3" source="30" target="34" edge="1">
          <mxGeometry width="100" height="100" relative="1" as="geometry">
            <mxPoint x="60" y="480" as="sourcePoint" />
            <mxPoint x="160" y="380" as="targetPoint" />
            <Array as="points">
              <mxPoint x="195" y="400" />
            </Array>
          </mxGeometry>
        </mxCell>
        <mxCell id="4" value="Thread 3" style="swimlane;whiteSpace=wrap" parent="1" vertex="1">
          <mxGeometry x="1040" y="-100" width="280" height="570" as="geometry" />
        </mxCell>
        <mxCell id="33" value="process&#xa;command" style="" parent="4" vertex="1">
          <mxGeometry x="90" y="405" width="110" height="50" as="geometry" />
        </mxCell>
        <mxCell id="35" value="" style="edgeStyle=elbowEdgeStyle;elbow=horizontal;strokeColor=#FF0000;endArrow=open;endFill=1;rounded=0;entryX=0.25;entryY=0.5;entryPerimeter=0" parent="4" target="25" edge="1">
          <mxGeometry width="100" height="100" relative="1" as="geometry">
            <mxPoint x="-30" y="410" as="sourcePoint" />
            <mxPoint x="-120" y="120" as="targetPoint" />
            <Array as="points">
              <mxPoint x="-10" y="135" />
            </Array>
          </mxGeometry>
        </mxCell>
        <mxCell id="37" value="" style="edgeStyle=none;strokeColor=#FF0000;endArrow=open;endFill=1;rounded=0" parent="4" target="33" edge="1">
          <mxGeometry width="100" height="100" relative="1" as="geometry">
            <mxPoint x="-30" y="429.5" as="sourcePoint" />
            <mxPoint x="90" y="429.5" as="targetPoint" />
          </mxGeometry>
        </mxCell>
        <mxCell id="38" value="" style="ellipse;shape=endState;fillColor=#000000;strokeColor=#ff0000" parent="4" vertex="1">
          <mxGeometry x="130" y="500" width="30" height="30" as="geometry" />
        </mxCell>
        <mxCell id="39" value="" style="endArrow=open;strokeColor=#FF0000;endFill=1;rounded=0" parent="4" source="33" target="38" edge="1">
          <mxGeometry relative="1" as="geometry" />
        </mxCell>
        <mxCell id="20" value="" style="endArrow=open;strokeColor=#FF0000;endFill=1;rounded=0" parent="1" source="10" target="18" edge="1">
          <mxGeometry relative="1" as="geometry" />
        </mxCell>
        <mxCell id="t-0EQXMj_pMEZj2fkRqL-41" value="报修状态 Repair Status" style="swimlane;whiteSpace=wrap;startSize=23;" vertex="1" parent="1">
          <mxGeometry x="40" y="-826" width="780" height="570" as="geometry" />
        </mxCell>
        <mxCell id="t-0EQXMj_pMEZj2fkRqL-84" style="edgeStyle=none;rounded=0;orthogonalLoop=1;jettySize=auto;html=1;startArrow=blockThin;startFill=1;entryX=1.007;entryY=0.53;entryDx=0;entryDy=0;entryPerimeter=0;" edge="1" parent="t-0EQXMj_pMEZj2fkRqL-41" source="t-0EQXMj_pMEZj2fkRqL-45" target="t-0EQXMj_pMEZj2fkRqL-44">
          <mxGeometry relative="1" as="geometry">
            <mxPoint x="580" y="186" as="targetPoint" />
            <Array as="points">
              <mxPoint x="580" y="361" />
              <mxPoint x="580" y="183" />
            </Array>
          </mxGeometry>
        </mxCell>
        <mxCell id="t-0EQXMj_pMEZj2fkRqL-77" value="" style="edgeStyle=none;rounded=0;orthogonalLoop=1;jettySize=auto;html=1;entryX=0.5;entryY=0.03;entryDx=0;entryDy=0;entryPerimeter=0;startArrow=blockThin;startFill=1;endArrow=none;" edge="1" parent="t-0EQXMj_pMEZj2fkRqL-41" source="t-0EQXMj_pMEZj2fkRqL-45" target="t-0EQXMj_pMEZj2fkRqL-76">
          <mxGeometry relative="1" as="geometry">
            <mxPoint x="430" y="-465" as="sourcePoint" />
            <mxPoint x="430" y="-318.5" as="targetPoint" />
          </mxGeometry>
        </mxCell>
        <mxCell id="t-0EQXMj_pMEZj2fkRqL-75" value="" style="edgeStyle=none;rounded=0;orthogonalLoop=1;jettySize=auto;html=1;entryX=0.5;entryY=-0.01;entryDx=0;entryDy=0;entryPerimeter=0;startArrow=blockThin;startFill=1;endArrow=none;" edge="1" parent="t-0EQXMj_pMEZj2fkRqL-41" source="t-0EQXMj_pMEZj2fkRqL-44" target="t-0EQXMj_pMEZj2fkRqL-74">
          <mxGeometry relative="1" as="geometry">
            <mxPoint x="430" y="-645" as="sourcePoint" />
            <mxPoint x="430" y="-490.5" as="targetPoint" />
          </mxGeometry>
        </mxCell>
        <mxCell id="t-0EQXMj_pMEZj2fkRqL-42" value="" style="ellipse;shape=startState;fillColor=#000000;strokeColor=#ff0000;" vertex="1" parent="t-0EQXMj_pMEZj2fkRqL-41">
          <mxGeometry x="375" y="50" width="30" height="30" as="geometry" />
        </mxCell>
        <mxCell id="t-0EQXMj_pMEZj2fkRqL-66" style="edgeStyle=none;rounded=0;orthogonalLoop=1;jettySize=auto;html=1;entryX=0.5;entryY=-0.01;entryDx=0;entryDy=0;entryPerimeter=0;startArrow=none;startFill=1;" edge="1" parent="t-0EQXMj_pMEZj2fkRqL-41" source="t-0EQXMj_pMEZj2fkRqL-74" target="t-0EQXMj_pMEZj2fkRqL-45">
          <mxGeometry relative="1" as="geometry" />
        </mxCell>
        <mxCell id="t-0EQXMj_pMEZj2fkRqL-44" value="未进行（待调度）Undo" style="" vertex="1" parent="t-0EQXMj_pMEZj2fkRqL-41">
          <mxGeometry x="320" y="156" width="140" height="50" as="geometry" />
        </mxCell>
        <mxCell id="t-0EQXMj_pMEZj2fkRqL-67" style="edgeStyle=none;rounded=0;orthogonalLoop=1;jettySize=auto;html=1;entryX=0.5;entryY=0.03;entryDx=0;entryDy=0;entryPerimeter=0;startArrow=none;startFill=1;" edge="1" parent="t-0EQXMj_pMEZj2fkRqL-41" source="t-0EQXMj_pMEZj2fkRqL-76" target="t-0EQXMj_pMEZj2fkRqL-47">
          <mxGeometry relative="1" as="geometry" />
        </mxCell>
        <mxCell id="t-0EQXMj_pMEZj2fkRqL-45" value="进行中 Doing" style="" vertex="1" parent="t-0EQXMj_pMEZj2fkRqL-41">
          <mxGeometry x="335" y="336" width="110" height="50" as="geometry" />
        </mxCell>
        <mxCell id="t-0EQXMj_pMEZj2fkRqL-47" value="已完成 Done" style="" vertex="1" parent="t-0EQXMj_pMEZj2fkRqL-41">
          <mxGeometry x="335" y="506" width="110" height="50" as="geometry" />
        </mxCell>
        <mxCell id="t-0EQXMj_pMEZj2fkRqL-65" value="" style="endArrow=classic;html=1;rounded=0;exitX=0.5;exitY=1;exitDx=0;exitDy=0;startArrow=none;" edge="1" parent="t-0EQXMj_pMEZj2fkRqL-41" source="t-0EQXMj_pMEZj2fkRqL-71">
          <mxGeometry width="50" height="50" relative="1" as="geometry">
            <mxPoint x="510" y="336" as="sourcePoint" />
            <mxPoint x="390" y="156" as="targetPoint" />
          </mxGeometry>
        </mxCell>
        <mxCell id="t-0EQXMj_pMEZj2fkRqL-71" value="调度员根据业主反馈提&lt;br&gt;交新的Repair报修项目" style="text;html=1;strokeColor=none;fillColor=none;align=center;verticalAlign=middle;whiteSpace=wrap;rounded=0;" vertex="1" parent="t-0EQXMj_pMEZj2fkRqL-41">
          <mxGeometry x="260" y="106" width="260" height="30" as="geometry" />
        </mxCell>
        <mxCell id="t-0EQXMj_pMEZj2fkRqL-73" value="" style="endArrow=none;html=1;rounded=0;exitX=0.5;exitY=1;exitDx=0;exitDy=0;" edge="1" parent="t-0EQXMj_pMEZj2fkRqL-41" source="t-0EQXMj_pMEZj2fkRqL-42" target="t-0EQXMj_pMEZj2fkRqL-71">
          <mxGeometry width="50" height="50" relative="1" as="geometry">
            <mxPoint x="430" y="-746" as="sourcePoint" />
            <mxPoint x="430" y="-670" as="targetPoint" />
          </mxGeometry>
        </mxCell>
        <mxCell id="t-0EQXMj_pMEZj2fkRqL-74" value="调度员Dispatcher对未进行的Repair项目进行调度" style="text;html=1;strokeColor=none;fillColor=none;align=center;verticalAlign=middle;whiteSpace=wrap;rounded=0;" vertex="1" parent="t-0EQXMj_pMEZj2fkRqL-41">
          <mxGeometry x="300" y="255" width="180" height="30" as="geometry" />
        </mxCell>
        <mxCell id="t-0EQXMj_pMEZj2fkRqL-76" value="工人Worker完成对应报修项目" style="text;html=1;strokeColor=none;fillColor=none;align=center;verticalAlign=middle;whiteSpace=wrap;rounded=0;" vertex="1" parent="t-0EQXMj_pMEZj2fkRqL-41">
          <mxGeometry x="305" y="436" width="170" height="30" as="geometry" />
        </mxCell>
        <mxCell id="t-0EQXMj_pMEZj2fkRqL-93" value="工人到现场发现无法处理对应报修项目，提交反馈" style="text;html=1;strokeColor=none;fillColor=none;align=center;verticalAlign=middle;whiteSpace=wrap;rounded=0;" vertex="1" parent="t-0EQXMj_pMEZj2fkRqL-41">
          <mxGeometry x="580" y="256" width="150" height="30" as="geometry" />
        </mxCell>
      </root>
    </mxGraphModel>
  </diagram>
</mxfile>
